<svg version="1.0" xmlns="http://www.w3.org/2000/svg"
     width="40.000000pt" height="51.000000pt" viewBox="0 0 40.000000 51.000000"
     preserveAspectRatio="xMidYMid meet">

    <g transform="translate(0.000000,51.000000) scale(0.100000,-0.100000)"
       fill="#000000" stroke="none">
        <path d="M131 463 c-81 -40 -90 -126 -26 -254 48 -96 105 -180 116 -173 15 9
115 214 104 214 -2 0 -18 -26 -36 -57 -18 -32 -41 -71 -52 -87 l-20 -28 -24
38 c-83 132 -109 243 -67 284 40 41 133 43 161 3 20 -26 16 -77 -7 -98 -26
-24 -85 -25 -107 -2 -13 13 -15 23 -7 44 8 23 15 28 44 28 28 0 35 -5 41 -25
l7 -25 1 26 c1 33 -16 49 -54 49 -41 0 -65 -27 -65 -73 0 -87 136 -108 183
-27 21 35 22 99 2 126 -35 50 -130 68 -194 37z"/>
    </g>
</svg>
